<svg xmlns="http://www.w3.org/2000/svg" width="280" height="280" viewBox="0 0 280 280">
  <g id="Raggruppa_2774" data-name="Raggruppa 2774" transform="translate(-1292 -221)">
    <circle id="Ellisse_4" data-name="Ellisse 4" cx="140" cy="140" r="140" transform="translate(1292 221)" fill="#fff"/>
    <path id="Tracciato_445" data-name="Tracciato 445" d="M197.868,107.856a36.5,36.5,0,0,1,10.691,4.433l6.948-3.087,8.189,8.189-3.084,6.946a36.549,36.549,0,0,1,4.433,10.694l7.089,2.726v11.579l-7.09,2.73a36.5,36.5,0,0,1-4.433,10.691l3.087,6.948-8.189,8.189-6.946-3.085a36.549,36.549,0,0,1-10.694,4.433l-2.727,7.089H183.563l-2.73-7.09a36.5,36.5,0,0,1-10.691-4.433l-6.948,3.087-8.189-8.189,3.084-6.946a36.549,36.549,0,0,1-4.433-10.694l-7.089-2.727V137.76l7.089-2.73a36.468,36.468,0,0,1,4.433-10.691l-3.084-6.946,8.189-8.189,6.948,3.087a36.533,36.533,0,0,1,10.691-4.433l2.73-7.09h11.579Zm-85.586,18a12.824,12.824,0,1,1-12.824,12.824,12.826,12.826,0,0,1,12.824-12.824ZM91.2,178.4h42.165a3.4,3.4,0,0,0,3.274-4.361,25.37,25.37,0,0,0-48.714,0A3.4,3.4,0,0,0,91.2,178.4Zm175.219-52.542a12.824,12.824,0,1,1-12.824,12.824A12.824,12.824,0,0,1,266.419,125.854ZM245.336,178.4H287.5a3.4,3.4,0,0,0,3.274-4.361,25.37,25.37,0,0,0-48.714,0,3.4,3.4,0,0,0,3.273,4.361ZM189.351,35.655a12.824,12.824,0,1,1-12.824,12.823A12.824,12.824,0,0,1,189.351,35.655ZM168.268,88.2h42.169a3.4,3.4,0,0,0,3.274-4.361,25.37,25.37,0,0,0-48.714,0,3.4,3.4,0,0,0,3.271,4.361Zm-49.257,30.5a74.745,74.745,0,0,1,38-42.378A3.4,3.4,0,1,0,154.05,70.2a81.734,81.734,0,0,0-41.46,46.244,3.4,3.4,0,1,0,6.42,2.262ZM221.693,76.327a74.764,74.764,0,0,1,38,42.382,3.4,3.4,0,1,0,6.418-2.267A81.724,81.724,0,0,0,224.648,70.2a3.4,3.4,0,1,0-2.957,6.128Zm26.713,112.781a3.4,3.4,0,1,1,5.38,4.155,81.364,81.364,0,0,1-128.874,0,3.4,3.4,0,0,1,5.38-4.155,74.593,74.593,0,0,0,118.106,0ZM198.44,136.1a9.31,9.31,0,0,0-5.678-5.323h0a3.409,3.409,0,1,0-6.818,0v.045a8.159,8.159,0,0,0-5.79,8.143c.239,4.939,4.3,7.155,8.674,7.874.988.163,3.435.576,3.587,1.844.014.12.02.123.02.145.018.778-1.76,1.136-2.312,1.2-.266.032-.461.05-.586.051-1.318.032-3-.468-3.36-1.906a3.4,3.4,0,0,0-6.6,1.623,9.162,9.162,0,0,0,6.371,6.554,3.409,3.409,0,0,0,6.816.074c3.669-1.027,6.562-3.7,6.464-7.762-.006-.324-.023-.586-.047-.784-.61-5.016-4.787-7.022-9.261-7.757-.72-.118-2.926-.5-2.973-1.48-.045-.924.94-1.387,1.71-1.543a3,3,0,0,1,3.5,1.639,3.41,3.41,0,1,0,6.288-2.639Zm-9.087-12.744a20.195,20.195,0,1,0,20.195,20.195A20.192,20.192,0,0,0,189.353,123.356Z" transform="translate(1243.438 221.345)" fill="#05ab89" fill-rule="evenodd"/>
  </g>
</svg>
