<svg xmlns="http://www.w3.org/2000/svg" xmlns:xlink="http://www.w3.org/1999/xlink" width="331" height="331" viewBox="0 0 331 331">
  <defs>
    <filter id="Ellisse_4" x="0" y="0" width="331" height="331" filterUnits="userSpaceOnUse">
      <feOffset input="SourceAlpha"/>
      <feGaussianBlur stdDeviation="8.5" result="blur"/>
      <feFlood flood-color="#fff"/>
      <feComposite operator="in" in2="blur"/>
      <feComposite in="SourceGraphic"/>
    </filter>
  </defs>
  <g id="Raggruppa_1370" data-name="Raggruppa 1370" transform="translate(-1236.5 -195.5)">
    <g transform="matrix(1, 0, 0, 1, 1236.5, 195.5)" filter="url(#Ellisse_4)">
      <circle id="Ellisse_4-2" data-name="Ellisse 4" cx="140" cy="140" r="140" transform="translate(25.5 25.5)" fill="#fff"/>
    </g>
    <g id="noun-artificial-intelligence-2401100" transform="translate(1234.562 263.727)">
      <path id="Tracciato_421" data-name="Tracciato 421" d="M252.219,104.129a2.7,2.7,0,0,0-2.281-1.259H233.76a2.712,2.712,0,0,0-.037-.442,18.4,18.4,0,0,0-18.982-15.736l-35.9,1.939-.459-8.707,13.466-.707a2.7,2.7,0,0,0,2.551-2.835l-.424-8.089,8.089-.42h0a2.7,2.7,0,0,0,2.551-2.834L203.486,43.5h0a2.7,2.7,0,0,0-.892-1.862,2.633,2.633,0,0,0-1.367-.61l3.505-24.065-5.334-.782-3.656,25.042-3.179.165-.426-8.089h0a2.657,2.657,0,0,0-2.834-2.551l-64.623,3.4a2.7,2.7,0,0,0-2.548,2.834l.424,8.089-3.177.167-6.253-24.515L107.9,22.051l6.013,23.571h0a2.666,2.666,0,0,0-1.992,2.7l1.13,21.54h0a2.7,2.7,0,0,0,2.7,2.556h.143l8.076-.424.424,8.089h0a2.7,2.7,0,0,0,2.7,2.556h.143l13.46-.707.461,8.768-26.141,1.387a19.414,19.414,0,0,0-18.761,18.874v21.571a2.7,2.7,0,0,0,.79,1.907l4.6,4.6V151.4a2.7,2.7,0,0,0,1.435,2.383l45.838,24.267a2.7,2.7,0,0,0,1.262.313h72.8a2.7,2.7,0,0,0,2.7-2.7V162.8l26.694-56.084a2.694,2.694,0,0,0-.146-2.588Zm-53.991-57.64.85,16.156-5.393.27-.426-8.089-.424-8.089ZM118.3,66.878l-.85-16.156,5.393-.283.426,8.089.424,8.089Zm11.325,10.205-.989-18.848-.563-10.772-.426-8.089,59.248-3.1.989,18.85.563,10.77.426,8.089-13.466.707L143.1,76.379Zm43.829,11.846L146.53,90.382l-.461-8.761L173,80.21Zm-71.812,42.485V110.959a14.16,14.16,0,0,1,13.627-13.482L215,92.084a13.045,13.045,0,0,1,13.3,10.785H177.137a2.7,2.7,0,0,0-2.427,1.54l-18.362,38.556-30.442-17.394V113.654h-5.393v13.482a2.7,2.7,0,0,0,1.348,2.34l32.153,18.367-5.069,10.646-42.993-22.76Zm118.639,41.561H150.843l-43.81-23.188V142.4l41.881,22.172h0a2.494,2.494,0,0,0,.366.141c.078.026.15.067.232.089a2.8,2.8,0,0,0,.663.083h70.1Zm.992-13.482H154.445l24.4-51.23h66.826Z" fill="#03be98" stroke="#03be98" stroke-width="3"/>
      <path id="Tracciato_422" data-name="Tracciato 422" d="M235.63,122.326a8.088,8.088,0,1,0-.428,0,3.182,3.182,0,0,0,.429,0Zm-3.127-7.937a2.7,2.7,0,0,1,2.551-2.834h.146a2.7,2.7,0,1,1-2.7,2.834Z" transform="translate(-90.688 -62.247)" fill="#03be98" stroke="#03be98" stroke-width="3"/>
      <path id="Tracciato_423" data-name="Tracciato 423" d="M314.488,112.383a8.1,8.1,0,1,0,.341-6.181,8.084,8.084,0,0,0-.341,6.181Zm6.741-5.231h0a1.559,1.559,0,1,1-.006,0Z" transform="translate(-150.674 -59.102)" fill="#03be98" stroke="#03be98" stroke-width="3"/>
      <path id="Tracciato_424" data-name="Tracciato 424" d="M413.285,380.321a10.784,10.784,0,1,0-7.627-3.159A10.789,10.789,0,0,0,413.285,380.321Zm0-16.178a5.392,5.392,0,1,1-3.813,1.579A5.394,5.394,0,0,1,413.285,364.143Z" transform="translate(-211.88 -237.007)" fill="#03be98" stroke="#03be98" stroke-width="3"/>
      <path id="Tracciato_425" data-name="Tracciato 425" d="M263.91,173.126l21.54-1.138.284,5.386-21.54,1.138Z" transform="translate(-115.997 -107.796)" fill="#03be98" stroke="#03be98" stroke-width="3"/>
    </g>
  </g>
</svg>
